<mxfile host="app.diagrams.net" modified="2023-09-12T20:03:40.674Z" agent="Mozilla/5.0 (Windows NT 10.0; Win64; x64) AppleWebKit/537.36 (KHTML, like Gecko) Chrome/116.0.0.0 Safari/537.36" version="21.7.4" etag="jCdUUR2578_vwo_BLRxg" type="github">
  <diagram name="PÃ¡gina-1" id="WlOjMpnr5hbR3XQn9iEC">
    <mxGraphModel>
      <root>
        <mxCell id="0" />
        <mxCell id="1" parent="0" />
      </root>
    </mxGraphModel>
  </diagram>
</mxfile>
